<svg width="46" height="40" viewBox="0 0 46 40" fill="none" xmlns="http://www.w3.org/2000/svg">
<path d="M17.0267 10.0098L11.1719 20.0969L17.0267 30.3351H28.7667L34.7125 20.0969L28.7667 10.0098H17.0267Z" stroke="#75468A" stroke-linejoin="round"/>
<path d="M11.7715 0.937988L0.71875 20.0295L11.7715 39.4069H33.9344L45.1589 20.0295L33.9344 0.937988H11.7715Z" stroke="#75468A" stroke-linejoin="round"/>
<path d="M16.6804 3.90774L5.88439 17.2716L12.0397 33.5176L29.0696 36.1866L40.0321 22.6235L33.9649 6.73696L16.6804 3.90774Z" stroke="#75468A" stroke-linejoin="round"/>
<path d="M0.773438 20.0577L5.88349 17.3018L11.1658 20.0577" stroke="#75468A" stroke-linejoin="round"/>
<path d="M11.7969 0.995605L16.6773 3.92384L16.9643 10.0674M33.9596 0.995605V6.67982L28.9069 10.0674M44.9835 20.1726L39.9883 22.699L34.706 20.1726M33.7873 39.2923L29.0792 36.1918L28.6773 30.2779M11.8543 39.4071L12.0265 33.608L16.9643 30.2779" stroke="#75468A" stroke-linejoin="round"/>
</svg>
