<svg width="24" height="24" viewBox="0 0 24 24" fill="none" xmlns="http://www.w3.org/2000/svg">
<path d="M5.5 11.5C5.5 10.5 6.58202 9.5 7.5 9.5C9.5 9.5 14.5 13.5 16.5 13.5C17.5 13.5 18.5 12.5 18.5 11.5C18.5 10.5 17.5 9.5 16.5 9.5C14.5 9.5 9.5 13.5 7.5 13.5C6.5 13.5 5.5 12.5 5.5 11.5Z" stroke="#9CA3AF" stroke-width="0.5"/>
<path d="M10.5 10.5C10.5 9.5 11 8.5 12 8.5C13 8.5 13.5 9.5 13.5 10.5" stroke="#9CA3AF" stroke-width="0.5"/>
<path d="M15 6.75C15.1381 6.75 15.25 6.63807 15.25 6.5C15.25 6.36193 15.1381 6.25 15 6.25V6.75ZM13.2372 9.07906C13.4869 8.32973 13.7273 7.73688 14.0159 7.33281C14.2966 6.93989 14.6036 6.75 15 6.75V6.25C14.3964 6.25 13.9534 6.56011 13.6091 7.04219C13.2727 7.51312 13.0131 8.17027 12.7628 8.92094L13.2372 9.07906Z" fill="#9CA3AF"/>
<path d="M9 6.75C8.86193 6.75 8.75 6.63807 8.75 6.5C8.75 6.36193 8.86193 6.25 9 6.25V6.75ZM10.7628 9.07906C10.5131 8.32973 10.2727 7.73688 9.98407 7.33281C9.70341 6.93989 9.3964 6.75 9 6.75V6.25C9.6036 6.25 10.0466 6.56011 10.3909 7.04219C10.7273 7.51312 10.9869 8.17027 11.2372 8.92094L10.7628 9.07906Z" fill="#9CA3AF"/>
<path d="M9.50007 13.0001C9.08546 13.8292 9.17089 13.8146 9.32632 14.5263M14.4999 13C14.9145 13.8291 14.8292 13.8146 14.6737 14.5263M9.32632 14.5263C9.35835 14.673 9.41459 14.8292 9.50001 15.0001C9.50001 15.0001 9.5923 15.2062 9.75656 15.5001C9.85364 15.6738 9.97587 15.8781 10.119 16.0887M9.32632 14.5263C11 13.0001 13 13.0001 14.6737 14.5263M14.6737 14.5263C14.6417 14.673 14.5854 14.8292 14.5 15.0001C14.5 15.0001 14.4077 15.2062 14.2435 15.5001C14.1464 15.6738 14.0242 15.8781 13.881 16.0887M10.119 16.0887C10.5773 16.7626 11.2501 17.5001 12 17.5001C12.7499 17.5001 13.4227 16.7626 13.881 16.0887M10.119 16.0887C11.5 15.0001 12.5 15.0001 13.881 16.0887" stroke="#9CA3AF" stroke-width="0.5" stroke-linecap="round"/>
</svg>
