<svg width="24" height="24" viewBox="0 0 24 24" fill="none" xmlns="http://www.w3.org/2000/svg">
<path d="M10.5 10.5C10 11 9.5 11.5 8.5 12C11 13 13 13 15.5 12C14.5 11.5 14 11 13.5 10.5M9.5 12.5C9 13 8.5 14 7.5 14.5C11 16 13 16 16.5 14.5C15.5 14 15 13 14.5 12.5M8.5 15C8 16 7.5 16.5 6.5 17C10.5 19 13.5 19 17.5 17C16.5 16.5 16 16 15.5 15" stroke="#9CA3AF" stroke-width="0.5" stroke-linecap="round" stroke-linejoin="round"/>
<path d="M11 8.5C10.555 8.95104 10.2678 9.48813 9.5 10C12 10.5 12 10.5 14.5 10C13.6297 9.41983 13.49 9.03651 13 8.5" stroke="#9CA3AF" stroke-width="0.5" stroke-linecap="round" stroke-linejoin="round"/>
<path d="M11.7214 6.66652L12 5.80902L12.2786 6.66652C12.3389 6.85193 12.5116 6.97746 12.7066 6.97746H13.6082L12.8788 7.50742C12.7211 7.62201 12.6551 7.82513 12.7153 8.01054L12.9939 8.86803L12.2645 8.33807C12.1068 8.22348 11.8932 8.22348 11.7355 8.33807L11.0061 8.86803L11.2847 8.01054C11.3449 7.82513 11.2789 7.62201 11.1212 7.50742L10.3918 6.97746H11.2934C11.4884 6.97746 11.6611 6.85193 11.7214 6.66652Z" stroke="#9CA3AF" stroke-width="0.5" stroke-miterlimit="4.13936"/>
</svg>
