<svg width="24" height="24" viewBox="0 0 24 24" fill="none" xmlns="http://www.w3.org/2000/svg">
<path d="M15 9C15.5 8.5 15.5 8.5 16 8.5C16.5 8.5 18 10 18 13C18 16 17 17.5 15 18" stroke="#9CA3AF" stroke-width="0.5" stroke-linecap="round" stroke-linejoin="round"/>
<path d="M8 9C7.5 8.5 7.5 8.5 7 8.5C6.5 8.5 5 10 5 13C5 16 6 17.5 8 18" stroke="#9CA3AF" stroke-width="0.5" stroke-linecap="round" stroke-linejoin="round"/>
<path d="M12.5 9C13 8.5 13.5 8.5 14 8.5C15 8.5 16 11 16 13.5C16 16 15 18.5 14 18.5C13.5 18.5 13 18.5 12.5 18" stroke="#9CA3AF" stroke-width="0.5" stroke-linejoin="round"/>
<path d="M10.5 9C10 8.5 9.5 8.5 9 8.5C8 8.5 7 11 7 13.5C7 16 8 18.5 9 18.5C9.5 18.5 10 18.5 10.5 18" stroke="#9CA3AF" stroke-width="0.5" stroke-linejoin="round"/>
<path d="M13.5 13.5C13.5 11 13 8.5 11.5 8.5C10 8.5 9.5 11 9.5 13.5C9.5 16 10 18 11.5 18.5C13 18 13.5 16 13.5 13.5Z" stroke="#9CA3AF" stroke-width="0.5" stroke-linejoin="round"/>
<path d="M11 8.49992C11 7.49992 11.5 6.49992 12 5.99992C12.5 5.49992 13.133 5.63276 13 5.99993C12.7734 6.62554 11.9758 8.72894 12.5 8.99992" stroke="#9CA3AF" stroke-width="0.5" stroke-linecap="round" stroke-linejoin="round"/>
</svg>
