<svg width="24" height="24" viewBox="0 0 24 24" fill="none" xmlns="http://www.w3.org/2000/svg">
<path d="M17.8971 14.0802C17.0981 15.6963 16.2321 16.1963 15.7991 16.4463C12.335 18.4463 9.10291 16.8482 7.60291 14.2501C6.10291 11.652 6.33496 8.05396 9.79906 6.05396C10.2321 5.80396 11.0981 5.30396 12.8971 5.41998C10.067 10.5181 12.067 13.9822 17.8971 14.0802Z" stroke="#9CA3AF" stroke-width="0.5" stroke-linecap="round" stroke-linejoin="round"/>
<path d="M17.5 4L16.6667 5.66667L15 6.5L16.6667 7.33333L17.5 9L18.3333 7.33333L20 6.5L18.3333 5.66667L17.5 4Z" stroke="#9CA3AF" stroke-width="0.5" stroke-linecap="round" stroke-linejoin="round"/>
<path d="M16.5 10L16 11L15 11.5L16 12L16.5 13L17 12L18 11.5L17 11L16.5 10Z" stroke="#9CA3AF" stroke-width="0.5" stroke-linecap="round" stroke-linejoin="round"/>
</svg>
