<svg width="48" height="48" viewBox="0 0 48 48" fill="none" xmlns="http://www.w3.org/2000/svg">
<path fill-rule="evenodd" clip-rule="evenodd" d="M17.3721 13.3208C17.4616 13.1667 17.6263 13.0718 17.8045 13.0718H29.5445C29.7216 13.0718 29.8854 13.1654 29.9753 13.3179L35.9211 23.4051C36.0129 23.5608 36.0135 23.7538 35.9228 23.9101L29.9769 34.1483C29.8874 34.3024 29.7227 34.3972 29.5445 34.3972H17.8045C17.6252 34.3972 17.4595 34.3011 17.3705 34.1454L11.5157 23.9072C11.4272 23.7524 11.4278 23.5622 11.5173 23.408L17.3721 13.3208ZM18.0924 14.0718L12.5268 23.6609L18.0946 33.3972H29.2567L34.9111 23.6609L29.2589 14.0718H18.0924Z" fill="#9058AA"/>
<path fill-rule="evenodd" clip-rule="evenodd" d="M12.1201 4.24949C12.2095 4.09508 12.3744 4 12.5528 4H34.7156C34.8928 4 35.0568 4.09381 35.1466 4.24659L46.3712 23.3381C46.4626 23.4936 46.4632 23.6862 46.3728 23.8422L35.1483 43.2195C35.0589 43.3739 34.894 43.4689 34.7156 43.4689H12.5528C12.3732 43.4689 12.2074 43.3726 12.1185 43.2166L1.06569 23.8393C0.977537 23.6847 0.978146 23.495 1.06728 23.341L12.1201 4.24949ZM12.8411 5L2.07668 23.5934L12.8432 42.4689H34.4274L45.3613 23.5934L34.4296 5H12.8411Z" fill="#9058AA"/>
<path fill-rule="evenodd" clip-rule="evenodd" d="M17.0705 7.15568C17.1835 7.01584 17.3628 6.94741 17.5403 6.97645L34.8248 9.80567C35.0004 9.83443 35.1476 9.95442 35.2111 10.1207L41.2783 26.0073C41.3418 26.1737 41.312 26.3614 41.2 26.4999L30.2375 40.0631C30.1253 40.2019 29.9476 40.2704 29.7712 40.2427L12.7414 37.5737C12.5638 37.5459 12.4149 37.4249 12.3512 37.2569L6.19588 21.0109C6.13294 20.8448 6.16287 20.6577 6.2745 20.5195L17.0705 7.15568ZM17.6657 8.01029L7.23264 20.9248L13.1834 36.6308L29.6411 39.2101L40.2414 26.0952L34.3795 10.7461L17.6657 8.01029Z" fill="#9058AA"/>
<path fill-rule="evenodd" clip-rule="evenodd" d="M6.43008 20.4236C6.57608 20.3449 6.75163 20.3437 6.8987 20.4204L12.181 23.1764L11.7184 24.063L6.6713 21.4297L1.79472 24.0597L1.32003 23.1796L6.43008 20.4236Z" fill="#9058AA"/>
<path fill-rule="evenodd" clip-rule="evenodd" d="M16.9747 7.77663L12.3241 4.98622L12.8385 4.12872L17.7189 7.05695C17.8624 7.14305 17.9533 7.29521 17.9611 7.46236L18.2482 13.6059L17.2493 13.6526L16.9747 7.77663ZM34.244 9.97493V4.55747H35.244V10.2417C35.244 10.4084 35.1609 10.5641 35.0224 10.657L29.9698 14.0445L29.4129 13.2139L34.244 9.97493ZM40.7665 25.7036L35.7061 23.2834L35.2747 24.1856L40.557 26.7119C40.6969 26.7788 40.8599 26.777 40.9983 26.707L45.9936 24.1807L45.5422 23.2883L40.7665 25.7036ZM13.3031 37.4411L18.0283 34.2543L17.4692 33.4252L12.5314 36.7554C12.3979 36.8454 12.316 36.9942 12.3112 37.1551L12.1389 42.9541L13.1385 42.9838L13.3031 37.4411ZM30.3456 39.4724L29.9605 33.8059L28.9628 33.8737L29.3647 39.7875C29.3753 39.9434 29.4581 40.0853 29.5886 40.1712L34.2967 43.2717L34.8467 42.4365L30.3456 39.4724Z" fill="#9058AA"/>
</svg>
