<svg width="48" height="48" viewBox="0 0 48 48" fill="none" xmlns="http://www.w3.org/2000/svg">
<path d="M18.0271 14.0095L12.1722 24.0967L18.0271 34.3349H29.7671L35.7129 24.0967L29.7671 14.0095H18.0271Z" stroke="#c63994" stroke-linejoin="round"/>
<path d="M12.7753 4.93774L1.72253 24.0293L12.7753 43.4066H34.9381L46.1627 24.0293L34.9381 4.93774H12.7753Z" stroke="#c63994" stroke-linejoin="round"/>
<path d="M17.682 7.90774L6.88598 21.2716L13.0413 37.5176L30.0712 40.1866L41.0337 26.6235L34.9665 10.737L17.682 7.90774Z" stroke="#c63994" stroke-linejoin="round"/>
<path d="M1.77991 24.0575L6.88996 21.3015L12.1723 24.0575" stroke="#c63994" stroke-linejoin="round"/>
<path d="M12.8038 4.99512L17.6842 7.92335L17.9713 14.0669M34.9665 4.99512V10.6793L29.9139 14.0669M45.9904 24.1722L40.9952 26.6985L35.7129 24.1722M34.7943 43.2918L30.0861 40.1913L29.6842 34.2774M12.8612 43.4066L13.0335 37.6076L17.9713 34.2774" stroke="#c63994" stroke-linejoin="round"/>
</svg>
