<svg width="391" height="339" viewBox="0 0 391 339" fill="none" xmlns="http://www.w3.org/2000/svg">
<path d="M143.986 81L93 168.842L143.986 258H246.222L298 168.842L246.222 81H143.986Z" stroke="#EC4899" stroke-width="9" stroke-linejoin="round"/>
<path d="M98.2513 2L2 168.256L98.2513 337H291.253L389 168.256L291.253 2H98.2513Z" stroke="#EC4899" stroke-width="9" stroke-linejoin="round"/>
<path d="M140.981 27.8622L46.9652 144.239L100.568 285.714L248.87 308.958L344.335 190.845L291.5 52.5L140.981 27.8622Z" stroke="#EC4899" stroke-width="9" stroke-linejoin="round"/>
<path d="M2.5 168.5L47 144.5L93 168.5" stroke="#EC4899" stroke-width="9" stroke-linejoin="round"/>
<path d="M98.5 2.5L141 28L143.5 81.5M291.5 2.5V52L247.5 81.5M387.5 169.5L344 191.5L298 169.5M290 336L249 309L245.5 257.5M99 337L100.5 286.5L143.5 257.5" stroke="#EC4899" stroke-width="9" stroke-linejoin="round"/>
</svg>
